<svg xmlns="http://www.w3.org/2000/svg" aria-hidden="true" style="width:0;height:0;position:absolute;overflow:hidden"><defs><symbol id="icon-change_country" viewBox="0 0 52 32"><path fill="#939393" style="fill:var(--color1,#939393)" d="M26 32 .019 2h51.962L26 32z"/></symbol><symbol id="icon-search_icon" viewBox="0 0 32 32"><path fill="#939393" style="fill:var(--color1,#939393)" d="M4.024 4.024C6.619 1.429 10.069 0 13.739 0s7.12 1.429 9.715 4.024a13.649 13.649 0 0 1 4.024 9.715 13.64 13.64 0 0 1-3.383 9.029l7.63 7.63a.937.937 0 1 1-1.327 1.327l-7.63-7.63a13.635 13.635 0 0 1-9.029 3.383c-3.67 0-7.12-1.429-9.715-4.024S0 17.409 0 13.739s1.429-7.12 4.024-9.715zm1.327 18.103c4.625 4.625 12.15 4.625 16.775 0s4.625-12.15 0-16.775c-2.313-2.313-5.35-3.469-8.388-3.469S7.663 3.04 5.35 5.352c-4.625 4.625-4.625 12.15 0 16.775z"/></symbol><symbol id="icon-logo" viewBox="0 0 38 32"><path fill="#fff" style="fill:var(--color3,#fff)" d="M14.789 16.451c-.198-.552-.607-.828-1.225-.828h-.195v3.403h.195c.478 0 .831-.188 1.058-.565.192-.322.288-.731.288-1.228 0-.296-.041-.556-.121-.783zM11.441 16.492c.199.552.607.828 1.225.828h.195v-3.403h-.195c-.478 0-.831.188-1.058.565-.191.322-.287.731-.287 1.228 0 .295.04.556.12.783zM8.193 8.481h2.597v.901H9.126v.451h1.383v.855H9.126v.456h1.664v.901H8.193V8.481zM12.095 8.477h3.36l-1.68 3.641-1.68-3.641zm1.68 3.19 1.388-3.001h-2.771l1.383 3.001zM16.797 8.481h2.597v.901H17.73v.451h1.383v.855H17.73v.456h1.664v.901h-2.597V8.481zM20.991 12.04V8.476h.2l2.489 2.422V8.476h.189v3.564l-2.878-.001zM26.589 12.046V9.383h-1.347v-.901h2.878v.901h-1.347v2.663h-.184zM9.724 14.627c.225 0 .405.034.538.102a.891.891 0 0 1 .502.82.852.852 0 0 1-.133.463.939.939 0 0 1-.364.335c.185.065.347.183.466.338a.86.86 0 0 1 .19.543.928.928 0 0 1-.136.489.988.988 0 0 1-.361.351.97.97 0 0 1-.251.092c-.092.02-.215.031-.369.031H8.229v-3.564h1.495zM15.729 17.933c-.268-.234-.4-.585-.397-1.052h.835c-.003.195.055.343.174.446s.287.154.502.154c.178 0 .318-.029.42-.087s.154-.147.154-.266c0-.099-.052-.171-.156-.215a1.445 1.445 0 0 0-.31-.095l-.189-.034a4.113 4.113 0 0 1-.681-.188c-.186-.069-.351-.183-.481-.333s-.195-.348-.195-.594.065-.455.195-.627a1.18 1.18 0 0 1 .52-.387 1.91 1.91 0 0 1 .709-.128c.311 0 .58.058.807.174s.405.292.535.527c.06.1.1.21.118.325.013.101.02.203.02.305h-.835c0-.184-.049-.32-.148-.407s-.253-.131-.461-.131c-.167 0-.297.029-.389.087s-.138.137-.138.236c0 .109.061.19.184.241.151.06.307.106.466.138.307.061.547.12.72.177a1 1 0 0 1 .448.3c.126.143.189.345.189.604 0 .246-.068.458-.205.635s-.317.313-.54.407c-.23.095-.476.143-.725.141-.495-.001-.877-.118-1.145-.352zM20.443 18.191v-2.663h-1.347v-.901h2.878v.901h-1.347v2.663h-.184zM22.943 14.627h2.597v.901h-1.664v.451h1.383v.855h-1.383v.456h1.664v.901h-2.597v-3.564zM29.385 18.191h-2.74v-3.564h1.388c.297 0 .539.053.727.159.179.098.328.243.43.42.103.179.156.382.154.589.002.259-.084.512-.246.714a1.153 1.153 0 0 1-.62.417l.907 1.265zm-2.55-3.252v1.839h1.316l-1.316-1.839zm0 3.063h2.192l-.748-1.04-.159.005h-1.285v1.035zm.133-3.186 1.393 1.946a.977.977 0 0 0 .568-.343.945.945 0 0 0 .225-.625.982.982 0 0 0-.138-.512.903.903 0 0 0-.389-.353c-.15-.075-.347-.113-.589-.113h-1.07z"/></symbol><symbol xmlns="http://www.w3.org/2000/svg" id="icon-ticket_prices" viewBox="0 0 45 32"><path d="M5.02 1.569H0v30.118h5.02V1.569zM17.645 1.569h-5.02v30.118h5.02V1.569zM25.25 1.569h-5.019v30.118h5.019V1.569zM45.176 1.569h-7.453v30.118h7.453V1.569zM10.039 1.569H7.605v30.118h2.434V1.569zM30.118 1.569h-2.434v30.118h2.434V1.569zM35.137 1.569h-2.434v30.118h2.434V1.569z"/></symbol><symbol xmlns="http://www.w3.org/2000/svg" id="icon-close" viewBox="0 0 32 32"><path fill="#4c00fe" style="fill:var(--color1,#4c00fe)" d="M1.646 32a1.646 1.646 0 0 1-1.163-2.811L29.19.482a1.646 1.646 0 1 1 2.328 2.329L2.811 31.517A1.65 1.65 0 0 1 1.646 32z"/><path fill="#4c00fe" style="fill:var(--color1,#4c00fe)" d="M30.355 32c-.421 0-.843-.16-1.163-.483L.483 2.811A1.647 1.647 0 0 1 2.812.482l28.707 28.707A1.646 1.646 0 0 1 30.356 32z"/></symbol><symbol id="icon-select" viewBox="0 0 52 32"><path d="m26 0 25.981 30H.019L26 0z"/></symbol><symbol id="icon-search" viewBox="0 0 32 32"><path d="M4.024 4.024C6.619 1.429 10.069 0 13.739 0s7.12 1.429 9.715 4.024a13.649 13.649 0 0 1 4.024 9.715 13.64 13.64 0 0 1-3.383 9.029l7.63 7.63a.94.94 0 0 1-1.327 1.327l-7.63-7.63a13.635 13.635 0 0 1-9.029 3.383c-3.67 0-7.12-1.429-9.715-4.024S0 17.409 0 13.739s1.429-7.12 4.024-9.715zm1.327 18.103c4.625 4.625 12.15 4.625 16.775 0s4.625-12.15 0-16.775c-2.313-2.313-5.35-3.469-8.388-3.469S7.663 3.04 5.35 5.352c-4.625 4.625-4.625 12.15 0 16.775z"/></symbol></defs></svg>