<svg xmlns="http://www.w3.org/2000/svg" xmlns:xlink="http://www.w3.org/1999/xlink" aria-hidden="true" style="position: absolute; width: 0; height: 0; overflow: hidden;" version="1.1">
<defs>
<symbol id="icon-change_country" viewBox="0 0 52 32">
<path fill="#939393" style="fill: var(--color1, #939393)" d="M26 32l-25.981-30h51.962l-25.981 30z"/>
</symbol>
<symbol id="icon-search_icon" viewBox="0 0 32 32">
<path fill="#939393" style="fill: var(--color1, #939393)" d="M4.024 4.024c2.595-2.595 6.045-4.024 9.715-4.024s7.12 1.429 9.715 4.024c2.595 2.595 4.024 6.045 4.024 9.715 0 3.355-1.195 6.526-3.383 9.029l7.63 7.63c0.367 0.366 0.367 0.961 0 1.327-0.183 0.183-0.423 0.275-0.663 0.275s-0.481-0.092-0.664-0.275l-7.63-7.63c-2.502 2.188-5.673 3.383-9.029 3.383-3.67 0-7.12-1.429-9.715-4.024s-4.024-6.045-4.024-9.715 1.429-7.12 4.024-9.715zM5.351 22.127c4.625 4.625 12.15 4.625 16.775 0s4.625-12.15 0-16.775c-2.313-2.313-5.35-3.469-8.388-3.469s-6.075 1.157-8.388 3.469c-4.625 4.625-4.625 12.15 0 16.775z"/>
</symbol>
<symbol id="icon-logo" viewBox="0 0 38 32">
<path fill="#000" style="fill: var(--color2, #000)" opacity="0.03" d="M-0.178 32c4.995 0 9.942-0.828 14.557-2.436s8.809-3.965 12.341-6.937 6.334-6.499 8.246-10.382c1.912-3.882 2.896-8.044 2.896-12.246h-38.040v32z"/>
<path fill="#fff" style="fill: var(--color3, #fff)" d="M14.789 16.451c-0.198-0.552-0.607-0.828-1.225-0.828h-0.195v3.403h0.195c0.478 0 0.831-0.188 1.058-0.565 0.192-0.322 0.288-0.731 0.288-1.228-0-0.296-0.041-0.556-0.121-0.783z"/>
<path fill="#fff" style="fill: var(--color3, #fff)" d="M11.441 16.492c0.199 0.552 0.607 0.828 1.225 0.828h0.195v-3.403h-0.195c-0.478 0-0.831 0.188-1.058 0.565-0.191 0.322-0.287 0.731-0.287 1.228 0 0.295 0.040 0.556 0.12 0.783z"/>
<path fill="#fff" style="fill: var(--color3, #fff)" d="M8.193 8.481h2.597v0.901h-1.664v0.451h1.383v0.855h-1.383v0.456h1.664v0.901h-2.597v-3.564z"/>
<path fill="#fff" style="fill: var(--color3, #fff)" d="M12.095 8.477h3.36l-1.68 3.641-1.68-3.641zM13.775 11.667l1.388-3.001h-2.771l1.383 3.001z"/>
<path fill="#fff" style="fill: var(--color3, #fff)" d="M16.797 8.481h2.597v0.901h-1.664v0.451h1.383v0.855h-1.383v0.456h1.664v0.901h-2.597v-3.564z"/>
<path fill="#fff" style="fill: var(--color3, #fff)" d="M20.991 12.040v-3.564h0.2l2.489 2.422v-2.422h0.189v3.564l-2.878-0.001z"/>
<path fill="#fff" style="fill: var(--color3, #fff)" d="M26.589 12.046v-2.663h-1.347v-0.901h2.878v0.901h-1.347v2.663h-0.184z"/>
<path fill="#fff" style="fill: var(--color3, #fff)" d="M9.724 14.627c0.225 0 0.405 0.034 0.538 0.102 0.153 0.075 0.281 0.191 0.37 0.337s0.135 0.313 0.132 0.483c0.001 0.164-0.045 0.325-0.133 0.463-0.089 0.142-0.215 0.258-0.364 0.335 0.185 0.065 0.347 0.183 0.466 0.338 0.124 0.154 0.191 0.346 0.19 0.543 0.001 0.172-0.046 0.342-0.136 0.489-0.088 0.146-0.212 0.267-0.361 0.351-0.079 0.042-0.163 0.073-0.251 0.092-0.092 0.020-0.215 0.031-0.369 0.031h-1.577v-3.564h1.495z"/>
<path fill="#fff" style="fill: var(--color3, #fff)" d="M15.729 17.933c-0.268-0.234-0.4-0.585-0.397-1.052h0.835c-0.003 0.195 0.055 0.343 0.174 0.446s0.287 0.154 0.502 0.154c0.178 0 0.318-0.029 0.42-0.087s0.154-0.147 0.154-0.266c0-0.099-0.052-0.171-0.156-0.215-0.099-0.043-0.203-0.075-0.31-0.095-0.102-0.019-0.166-0.030-0.189-0.034-0.232-0.043-0.46-0.106-0.681-0.188-0.186-0.069-0.351-0.183-0.481-0.333s-0.195-0.348-0.195-0.594 0.065-0.455 0.195-0.627c0.13-0.172 0.303-0.301 0.52-0.387 0.226-0.087 0.467-0.131 0.709-0.128 0.311 0 0.58 0.058 0.807 0.174s0.405 0.292 0.535 0.527c0.060 0.1 0.1 0.21 0.118 0.325 0.013 0.101 0.020 0.203 0.020 0.305h-0.835c0-0.184-0.049-0.32-0.148-0.407s-0.253-0.131-0.461-0.131c-0.167 0-0.297 0.029-0.389 0.087s-0.138 0.137-0.138 0.236c0 0.109 0.061 0.19 0.184 0.241 0.151 0.060 0.307 0.106 0.466 0.138 0.307 0.061 0.547 0.12 0.72 0.177 0.174 0.057 0.329 0.161 0.448 0.3 0.126 0.143 0.189 0.345 0.189 0.604 0 0.246-0.068 0.458-0.205 0.635s-0.317 0.313-0.54 0.407c-0.23 0.095-0.476 0.143-0.725 0.141-0.495-0.001-0.877-0.118-1.145-0.352z"/>
<path fill="#fff" style="fill: var(--color3, #fff)" d="M20.443 18.191v-2.663h-1.347v-0.901h2.878v0.901h-1.347v2.663h-0.184z"/>
<path fill="#fff" style="fill: var(--color3, #fff)" d="M22.943 14.627h2.597v0.901h-1.664v0.451h1.383v0.855h-1.383v0.456h1.664v0.901h-2.597v-3.564z"/>
<path fill="#fff" style="fill: var(--color3, #fff)" d="M29.385 18.191h-2.74v-3.564h1.388c0.297 0 0.539 0.053 0.727 0.159 0.179 0.098 0.328 0.243 0.43 0.42 0.103 0.179 0.156 0.382 0.154 0.589 0.002 0.259-0.084 0.512-0.246 0.714-0.155 0.204-0.373 0.351-0.62 0.417l0.907 1.265zM26.835 14.939v1.839h1.316l-1.316-1.839zM26.835 18.002h2.192l-0.748-1.040-0.159 0.005h-1.285v1.035zM26.968 14.816l1.393 1.946c0.224-0.045 0.425-0.166 0.568-0.343 0.148-0.174 0.228-0.396 0.225-0.625 0.002-0.18-0.046-0.357-0.138-0.512-0.092-0.154-0.228-0.277-0.389-0.353-0.15-0.075-0.347-0.113-0.589-0.113h-1.070z"/>
</symbol>
</defs>
</svg>